PathFileType	4	(X/Y/Z)	Patient4_TMGait_0pt5_02_right_17.trc.trc
DataRate	CameraRate	NumFrames	NumMarkers	Units	OrigDataRate	OrigDataStartFrame	OrigNumFrames
81.395348837209	81.395348837209	4	33	mm	81.395348837209	36	       141
Frame#	Time	Sacral			L.Shoulder			Chest			R.Shoulder			Neck			R.ASIS			L.ASIS			R.Thigh.Superior			R.Thigh.Lateral			R.Thigh.Inferior			R.Patella			L.Thigh.Superior			L.Thigh.Lateral			L.Thigh.Inferior			L.Patella			L.Shank.Superior			L.Shank.Lateral			L.Shank.Inferior			R.Shank.Superior			R.Shank.Lateral			R.Shank.Inferior			R.Heel			R.Midfoot.Superior			R.Midfoot.Lateral			R.Toe			L.Heel			L.Midfoot.Lateral			L.Midfoot.Superior			L.Toe			L.Elbow			L.Wrist			R.Elbow			R.Wrist			
		X1	Y1	Z1	X2	Y2	Z2	X3	Y3	Z3	X4	Y4	Z4	X5	Y5	Z5	X6	Y6	Z6	X7	Y7	Z7	X8	Y8	Z8	X9	Y9	Z9	X10	Y10	Z10	X11	Y11	Z11	X12	Y12	Z12	X13	Y13	Z13	X14	Y14	Z14	X15	Y15	Z15	X16	Y16	Z16	X17	Y17	Z17	X18	Y18	Z18	X19	Y19	Z19	X20	Y20	Z20	X21	Y21	Z21	X22	Y22	Z22	X23	Y23	Z23	X24	Y24	Z24	X25	Y25	Z25	X26	Y26	Z26	X27	Y27	Z27	X28	Y28	Z28	X29	Y29	Z29	X30	Y30	Z30	X31	Y31	Z31	X32	Y32	Z32	X33	Y33	Z33	

36	22.600000000000	644.089340668594	1009.567947930699	488.267639508383	858.334298019351	1429.457004743515	332.097506147958	933.769218650851	1357.548875775604	507.943963035113	825.238921470691	1434.576164841587	666.688403512390	831.705320911360	1491.815467794126	481.344960963417	854.822233179666	938.477650834986	630.582396496464	870.681136534308	954.238066890144	357.554815234623	914.666331050616	746.595657475621	606.343877305207	838.293605604598	634.991933287927	659.057285207195	926.915932204572	588.583281076439	585.829807080169	935.742331899490	500.332150774778	593.944167906110	905.393327073517	737.185446189474	387.324312840899	823.453362155721	624.635449927574	315.816292504444	901.561625127410	539.559681994810	382.487116783131	893.227217509543	454.855347338551	380.707311301627	828.888762843028	395.902311106853	373.169173521041	695.404387307368	342.157694165811	316.988255719123	684.196556155305	216.777571827191	379.056628352460	914.063788319715	410.467740772573	599.708511240203	846.202433683546	301.771203772022	655.727179874827	901.059323413031	210.246895472448	597.726180916104	780.215241074186	43.149713249418	556.726151367895	948.120511709945	98.032501719883	605.041614659900	858.104319317079	36.624196132159	637.986434794819	1066.239654800884	46.092075624052	641.458302205779	496.035921820206	135.727677202537	411.182839040747	561.649985629654	96.455505798258	334.724188966320	662.616583229711	117.636530539213	359.897970973404	754.093505789241	32.857328560018	338.784403001496	871.928913656884	1071.243542275451	226.690994681446	1029.327150797393	864.917631113098	258.607870570488	719.046370000730	1102.003880179994	768.402719728920	778.990639701340	847.537296659979	785.705168711068	
37	22.612285714286	644.183497392370	1009.953178595309	491.158403107349	857.285128279652	1430.226870889808	334.562156953633	933.792436440053	1358.179946856418	509.870200748800	826.098793501074	1434.642464951900	669.366491049296	831.417689762032	1492.269997793846	484.217466391498	855.672142255899	939.154144424891	632.562831251970	870.866773969646	954.927289005438	359.763969507484	913.903214084809	745.949726283064	609.181606387060	836.269219932047	634.934626309947	660.989584963259	924.821958183645	587.991964867108	587.924471851840	932.996409999844	499.679005825734	595.453222077109	909.520227236467	739.649440238850	389.595579011772	831.229007876858	625.223879634886	317.501213179236	911.781646210721	541.739060297299	383.945031873216	904.392765659114	455.974967565052	381.901740540754	838.435230332092	397.071307527596	374.374356542396	703.130232533746	347.800489330870	318.226341235278	688.464256068346	222.481902815956	379.622381695028	910.631988400155	409.995346916987	600.915255983308	842.064784360705	301.649864816741	656.580638427816	896.100346271635	209.892764419988	598.239048686659	774.242796740353	43.197563931081	556.888537506468	942.372193248636	97.796981396860	605.465385216866	852.095291123567	36.608843979945	638.149742061295	1060.271223606632	45.820156546395	641.716782454974	497.485463004621	149.758765626023	411.069776111243	561.301934999405	107.176252826684	334.694977810711	663.391318219926	122.707082090463	360.202947063983	749.540913364969	32.058928002713	339.160776843211	868.668560829737	1071.495741124832	230.587460205035	1014.314356553855	855.720983204089	257.384298274400	725.359428270340	1100.683315024883	772.726383983180	797.323365506848	849.287639786986	787.695422596859	
38	22.624571428571	644.092652762619	1010.320147531056	493.908913889982	856.175093415682	1430.783793907618	336.777384229922	933.791698816976	1358.689966411227	511.560666155577	827.006711372683	1434.672658263489	671.827556082392	831.179087521022	1492.625138550710	486.807228883918	856.316209885847	939.695633104351	634.485320803779	870.874063769145	955.453390623540	361.885275592276	912.989209890802	745.267002454513	612.008431433792	834.065491703581	634.804218869226	662.832403815030	922.562374576563	587.367166919672	589.958629513057	930.054802318905	499.017351684284	596.876816632376	913.380310666968	742.214476194292	391.797645509395	838.668633296758	626.083399437047	319.128226707574	921.468120998851	544.294699137584	385.486471439075	915.164756295694	457.559466373519	383.312532639259	847.805071346314	398.596971413230	375.697188965890	710.998592408120	353.469902862204	319.446003189537	693.054332810680	228.304886255613	380.282911562703	907.066643939987	409.506256276747	602.027736453474	837.837066942760	301.494025061856	657.349499582315	891.076215561579	209.534264415626	598.697467893907	768.218422637298	43.248132138816	557.037210458009	936.453297506390	97.615190936469	605.735721747900	846.041283232825	36.592112591240	638.293116646745	1054.263021769682	45.509264097824	641.932120375171	499.706025929583	163.378434589383	410.926603560977	561.860882037527	117.863612059640	334.672900546967	664.759412058650	128.106215228596	360.659298057095	745.875535210382	31.446289511276	339.609272575992	865.088070838152	1071.580049925812	234.004157612432	998.652812075229	847.429630860106	255.787970740402	731.634991474809	1099.617634776712	777.184968005228	815.804400441423	852.018091671404	789.819025682287	
39	22.636857142857	643.829281358127	1010.693235229695	496.504800423084	855.060786972339	1431.159914070303	338.742784648442	933.783527365099	1359.085805418692	513.024685705127	827.978062566121	1434.708213659501	674.062400053026	831.014409161022	1492.911492232609	489.096285435459	856.740965654560	940.122163253501	636.371454397828	870.675929728728	955.837092969614	363.904612246952	911.979669980664	744.606939765454	614.718022463464	831.788308858565	634.640731474868	664.557293466549	920.203211765834	586.736287982408	591.863888598373	926.978702086604	498.364159914246	598.171873344940	916.897377345565	744.872983978071	393.942472384123	845.677128805528	627.240724740786	320.701290147386	930.508383637779	547.217261111287	387.112980686131	925.441276390141	459.603007433812	384.883893732111	856.907794697828	400.474925068291	377.102208154634	718.915633544568	359.027820147061	320.625713893043	697.993464622111	234.053743449185	381.003553177232	903.416118170197	409.016748400037	603.020393314718	833.565318984166	301.332293994500	658.042877808774	886.011618029825	209.184668734985	599.092311726199	762.140377810754	43.304090670067	557.180354240172	930.405623801678	97.482495779461	605.890322413317	839.942753693031	36.578942117263	638.424001721654	1048.213481712608	45.178192597578	642.111384676504	502.733616624732	176.049768352903	410.748869014566	563.462107637670	128.054539736126	334.655626605141	666.877081077613	133.611492549609	361.221395486835	743.476418056874	31.118732973133	340.119659426747	861.113206357408	1071.549098216377	236.899723836128	982.497673277038	840.160857204423	253.879259154920	737.894268348102	1098.827278568969	781.734214347246	834.313268328151	855.761909492071	792.055276823461	
